<mxfile host="app.diagrams.net" modified="2021-09-12T05:25:27.169Z" agent="5.0 (Windows NT 10.0; Win64; x64) AppleWebKit/537.36 (KHTML, like Gecko) Chrome/90.0.4430.93 Safari/537.36" etag="55vpcbSxbk7nfMKAi1JF" version="15.1.4" type="github">
  <diagram id="WY-m1oPLcEQthf2t5UFG" name="Page-1">
    <mxGraphModel dx="1328" dy="746" grid="1" gridSize="10" guides="1" tooltips="1" connect="1" arrows="1" fold="1" page="1" pageScale="1" pageWidth="827" pageHeight="1169" math="0" shadow="0">
      <root>
        <mxCell id="0" />
        <mxCell id="1" parent="0" />
        <mxCell id="h0qUA_rzXuK-6Y-ImOe0-1" value="&lt;div&gt;&lt;font style=&quot;font-size: 14px&quot;&gt;SplashScreen&lt;/font&gt;&lt;/div&gt;&lt;div&gt;&lt;font style=&quot;font-size: 14px&quot;&gt;#&lt;/font&gt;&lt;span style=&quot;font-size: 14px&quot;&gt;setKeepVisibleCondition&lt;/span&gt;&lt;/div&gt;" style="rounded=1;whiteSpace=wrap;html=1;fillColor=#dae8fc;strokeColor=#6c8ebf;align=center;fontStyle=1" parent="1" vertex="1">
          <mxGeometry x="20" y="220" width="190" height="60" as="geometry" />
        </mxCell>
        <mxCell id="h0qUA_rzXuK-6Y-ImOe0-2" value="Impl31#setKeepVisibleCondition" style="rounded=1;whiteSpace=wrap;html=1;fillColor=#dae8fc;strokeColor=#6c8ebf;fontStyle=1" parent="1" vertex="1">
          <mxGeometry x="390.5" y="330" width="197.5" height="60" as="geometry" />
        </mxCell>
        <mxCell id="h0qUA_rzXuK-6Y-ImOe0-3" value="Android 12?" style="rhombus;whiteSpace=wrap;html=1;fillColor=#f8cecc;strokeColor=#b85450;fontStyle=1" parent="1" vertex="1">
          <mxGeometry x="262" y="210" width="110" height="80" as="geometry" />
        </mxCell>
        <mxCell id="h0qUA_rzXuK-6Y-ImOe0-4" value="" style="endArrow=classic;html=1;exitX=1;exitY=0.5;exitDx=0;exitDy=0;fontStyle=1;entryX=0;entryY=0.5;entryDx=0;entryDy=0;" parent="1" edge="1" target="h0qUA_rzXuK-6Y-ImOe0-3" source="h0qUA_rzXuK-6Y-ImOe0-1">
          <mxGeometry width="50" height="50" relative="1" as="geometry">
            <mxPoint x="316.5799999999999" y="160" as="sourcePoint" />
            <mxPoint x="316.5799999999999" y="210" as="targetPoint" />
          </mxGeometry>
        </mxCell>
        <mxCell id="h0qUA_rzXuK-6Y-ImOe0-5" value="Y" style="text;html=1;strokeColor=none;fillColor=none;align=center;verticalAlign=middle;whiteSpace=wrap;rounded=0;fontStyle=1" parent="1" vertex="1">
          <mxGeometry x="340" y="330" width="40" height="20" as="geometry" />
        </mxCell>
        <mxCell id="h0qUA_rzXuK-6Y-ImOe0-6" value="N" style="text;html=1;strokeColor=none;fillColor=none;align=center;verticalAlign=middle;whiteSpace=wrap;rounded=0;fontStyle=1" parent="1" vertex="1">
          <mxGeometry x="340" y="120" width="40" height="20" as="geometry" />
        </mxCell>
        <mxCell id="h0qUA_rzXuK-6Y-ImOe0-7" value="Impl#isetKeepVisibleCondition" style="rounded=1;whiteSpace=wrap;html=1;fillColor=#dae8fc;strokeColor=#6c8ebf;fontStyle=1" parent="1" vertex="1">
          <mxGeometry x="390.5" y="120" width="191.5" height="60" as="geometry" />
        </mxCell>
        <mxCell id="h0qUA_rzXuK-6Y-ImOe0-8" value="addOnPreDrawListener" style="rounded=1;whiteSpace=wrap;html=1;fillColor=#f5f5f5;strokeColor=#666666;fontColor=#333333;fontStyle=1" parent="1" vertex="1">
          <mxGeometry x="567" y="220" width="150" height="60" as="geometry" />
        </mxCell>
        <mxCell id="h0qUA_rzXuK-6Y-ImOe0-9" value="KeepOnScreenCondition&lt;br&gt;#shouldKeepOnScreen" style="rounded=1;whiteSpace=wrap;html=1;fillColor=#dae8fc;strokeColor=#6c8ebf;fontStyle=1" parent="1" vertex="1">
          <mxGeometry x="782" y="170" width="160" height="60" as="geometry" />
        </mxCell>
        <mxCell id="h0qUA_rzXuK-6Y-ImOe0-10" value="" style="endArrow=classic;html=1;exitX=0.5;exitY=1;exitDx=0;exitDy=0;entryX=0;entryY=0.5;entryDx=0;entryDy=0;fontStyle=1" parent="1" source="h0qUA_rzXuK-6Y-ImOe0-3" target="h0qUA_rzXuK-6Y-ImOe0-2" edge="1">
          <mxGeometry width="50" height="50" relative="1" as="geometry">
            <mxPoint x="552" y="225" as="sourcePoint" />
            <mxPoint x="129" y="298" as="targetPoint" />
            <Array as="points">
              <mxPoint x="317" y="360" />
            </Array>
          </mxGeometry>
        </mxCell>
        <mxCell id="h0qUA_rzXuK-6Y-ImOe0-11" value="" style="endArrow=classic;html=1;exitX=1;exitY=0.5;exitDx=0;exitDy=0;entryX=0.5;entryY=1;entryDx=0;entryDy=0;fontStyle=1" parent="1" source="h0qUA_rzXuK-6Y-ImOe0-2" target="h0qUA_rzXuK-6Y-ImOe0-8" edge="1">
          <mxGeometry width="50" height="50" relative="1" as="geometry">
            <mxPoint x="222" y="259.9999999999999" as="sourcePoint" />
            <mxPoint x="262" y="460" as="targetPoint" />
            <Array as="points">
              <mxPoint x="643" y="360" />
            </Array>
          </mxGeometry>
        </mxCell>
        <mxCell id="h0qUA_rzXuK-6Y-ImOe0-12" value="" style="endArrow=classic;html=1;exitX=1;exitY=0.5;exitDx=0;exitDy=0;fontStyle=1" parent="1" source="h0qUA_rzXuK-6Y-ImOe0-7" target="h0qUA_rzXuK-6Y-ImOe0-8" edge="1">
          <mxGeometry width="50" height="50" relative="1" as="geometry">
            <mxPoint x="490" y="430" as="sourcePoint" />
            <mxPoint x="488.5" y="485" as="targetPoint" />
            <Array as="points">
              <mxPoint x="640" y="150" />
            </Array>
          </mxGeometry>
        </mxCell>
        <mxCell id="h0qUA_rzXuK-6Y-ImOe0-13" value="" style="endArrow=classic;html=1;exitX=1;exitY=0.5;exitDx=0;exitDy=0;fontStyle=1;entryX=0;entryY=0.5;entryDx=0;entryDy=0;" parent="1" edge="1" target="h0qUA_rzXuK-6Y-ImOe0-9" source="h0qUA_rzXuK-6Y-ImOe0-8">
          <mxGeometry width="50" height="50" relative="1" as="geometry">
            <mxPoint x="780" y="179.99999999999977" as="sourcePoint" />
            <mxPoint x="780" y="229.99999999999977" as="targetPoint" />
            <Array as="points">
              <mxPoint x="760" y="250" />
              <mxPoint x="760" y="200" />
            </Array>
          </mxGeometry>
        </mxCell>
        <mxCell id="h0qUA_rzXuK-6Y-ImOe0-14" value="removeOnPreDrawListener" style="rounded=1;whiteSpace=wrap;html=1;fillColor=#f5f5f5;strokeColor=#666666;fontColor=#333333;fontStyle=1" parent="1" vertex="1">
          <mxGeometry x="772" y="280" width="180" height="60" as="geometry" />
        </mxCell>
        <mxCell id="h0qUA_rzXuK-6Y-ImOe0-15" value="" style="endArrow=classic;html=1;exitX=0.5;exitY=1;exitDx=0;exitDy=0;fontStyle=1" parent="1" edge="1">
          <mxGeometry width="50" height="50" relative="1" as="geometry">
            <mxPoint x="239.99999999999994" y="739.9999999999998" as="sourcePoint" />
            <mxPoint x="239.99999999999994" y="789.9999999999998" as="targetPoint" />
          </mxGeometry>
        </mxCell>
        <mxCell id="h0qUA_rzXuK-6Y-ImOe0-16" value="" style="endArrow=classic;html=1;entryX=0;entryY=0.5;entryDx=0;entryDy=0;fontStyle=1;exitX=0.5;exitY=0;exitDx=0;exitDy=0;" parent="1" source="h0qUA_rzXuK-6Y-ImOe0-3" target="h0qUA_rzXuK-6Y-ImOe0-7" edge="1">
          <mxGeometry width="50" height="50" relative="1" as="geometry">
            <mxPoint x="485" y="250" as="sourcePoint" />
            <mxPoint x="373" y="330" as="targetPoint" />
            <Array as="points">
              <mxPoint x="317" y="150" />
            </Array>
          </mxGeometry>
        </mxCell>
        <mxCell id="h0qUA_rzXuK-6Y-ImOe0-17" value="Android 12?" style="rhombus;whiteSpace=wrap;html=1;fillColor=#f8cecc;strokeColor=#b85450;fontStyle=1" parent="1" vertex="1">
          <mxGeometry x="1010" y="240" width="110" height="80" as="geometry" />
        </mxCell>
        <mxCell id="h0qUA_rzXuK-6Y-ImOe0-18" value="" style="endArrow=classic;html=1;fontStyle=1;entryX=0;entryY=0.5;entryDx=0;entryDy=0;exitX=0.5;exitY=1;exitDx=0;exitDy=0;" parent="1" edge="1" target="h0qUA_rzXuK-6Y-ImOe0-17" source="h0qUA_rzXuK-6Y-ImOe0-14">
          <mxGeometry width="50" height="50" relative="1" as="geometry">
            <mxPoint x="850.5" y="340" as="sourcePoint" />
            <mxPoint x="787.0799999999999" y="449.9999999999998" as="targetPoint" />
            <Array as="points">
              <mxPoint x="862" y="370" />
              <mxPoint x="980.5" y="370" />
              <mxPoint x="980.5" y="280" />
            </Array>
          </mxGeometry>
        </mxCell>
        <mxCell id="h0qUA_rzXuK-6Y-ImOe0-19" value="N" style="text;html=1;strokeColor=none;fillColor=none;align=center;verticalAlign=middle;whiteSpace=wrap;rounded=0;fontStyle=1" parent="1" vertex="1">
          <mxGeometry x="1105" y="120" width="40" height="20" as="geometry" />
        </mxCell>
        <mxCell id="h0qUA_rzXuK-6Y-ImOe0-20" value="dispatchOnExitAnimation" style="rounded=1;whiteSpace=wrap;html=1;fillColor=#dae8fc;strokeColor=#6c8ebf;fontStyle=1" parent="1" vertex="1">
          <mxGeometry x="1153" y="198" width="167" height="60" as="geometry" />
        </mxCell>
        <mxCell id="h0qUA_rzXuK-6Y-ImOe0-21" value="OnExitAnimationListener&lt;br&gt;#onSplashScreenExit" style="rounded=1;whiteSpace=wrap;html=1;fillColor=#dae8fc;strokeColor=#6c8ebf;fontStyle=1" parent="1" vertex="1">
          <mxGeometry x="1154" y="279" width="166" height="60" as="geometry" />
        </mxCell>
        <mxCell id="h0qUA_rzXuK-6Y-ImOe0-26" value="" style="endArrow=classic;html=1;exitX=0.5;exitY=1;exitDx=0;exitDy=0;entryX=0.5;entryY=1;entryDx=0;entryDy=0;fontStyle=1" parent="1" target="h0qUA_rzXuK-6Y-ImOe0-24" edge="1" source="h0qUA_rzXuK-6Y-ImOe0-17">
          <mxGeometry width="50" height="50" relative="1" as="geometry">
            <mxPoint x="726" y="520" as="sourcePoint" />
            <mxPoint x="614" y="600" as="targetPoint" />
            <Array as="points">
              <mxPoint x="1065" y="370" />
              <mxPoint x="1420" y="370" />
            </Array>
          </mxGeometry>
        </mxCell>
        <mxCell id="h0qUA_rzXuK-6Y-ImOe0-27" value="Y" style="text;html=1;strokeColor=none;fillColor=none;align=center;verticalAlign=middle;whiteSpace=wrap;rounded=0;fontStyle=1" parent="1" vertex="1">
          <mxGeometry x="1105" y="340" width="40" height="20" as="geometry" />
        </mxCell>
        <mxCell id="h0qUA_rzXuK-6Y-ImOe0-24" value="End" style="ellipse;whiteSpace=wrap;html=1;fillColor=#bac8d3;strokeColor=#23445d;fontStyle=1" parent="1" vertex="1">
          <mxGeometry x="1360" y="284" width="120" height="50" as="geometry" />
        </mxCell>
        <mxCell id="h0qUA_rzXuK-6Y-ImOe0-29" value="" style="endArrow=classic;html=1;fontStyle=1;exitX=0.5;exitY=1;exitDx=0;exitDy=0;entryX=0.5;entryY=0;entryDx=0;entryDy=0;" parent="1" edge="1" target="h0qUA_rzXuK-6Y-ImOe0-21" source="h0qUA_rzXuK-6Y-ImOe0-20">
          <mxGeometry width="50" height="50" relative="1" as="geometry">
            <mxPoint x="1245" y="259" as="sourcePoint" />
            <mxPoint x="1245" y="279" as="targetPoint" />
          </mxGeometry>
        </mxCell>
        <mxCell id="h0qUA_rzXuK-6Y-ImOe0-30" value="" style="endArrow=classic;html=1;exitX=0.5;exitY=0;exitDx=0;exitDy=0;entryX=0.483;entryY=-0.018;entryDx=0;entryDy=0;entryPerimeter=0;fontStyle=1" parent="1" target="h0qUA_rzXuK-6Y-ImOe0-20" edge="1" source="h0qUA_rzXuK-6Y-ImOe0-17">
          <mxGeometry width="50" height="50" relative="1" as="geometry">
            <mxPoint x="837" y="520" as="sourcePoint" />
            <mxPoint x="988" y="520" as="targetPoint" />
            <Array as="points">
              <mxPoint x="1065" y="160" />
              <mxPoint x="1234" y="160" />
            </Array>
          </mxGeometry>
        </mxCell>
        <mxCell id="h0qUA_rzXuK-6Y-ImOe0-32" value="" style="endArrow=classic;html=1;entryX=0;entryY=0.5;entryDx=0;entryDy=0;exitX=1;exitY=0.5;exitDx=0;exitDy=0;fontStyle=1" parent="1" source="h0qUA_rzXuK-6Y-ImOe0-21" target="h0qUA_rzXuK-6Y-ImOe0-24" edge="1">
          <mxGeometry width="50" height="50" relative="1" as="geometry">
            <mxPoint x="1274.25" y="349" as="sourcePoint" />
            <mxPoint x="1135" y="364" as="targetPoint" />
            <Array as="points" />
          </mxGeometry>
        </mxCell>
        <mxCell id="C49qPdOv5mMWDmwb6jOa-1" value="" style="endArrow=classic;html=1;fontStyle=1;entryX=0.5;entryY=0;entryDx=0;entryDy=0;exitX=0.5;exitY=1;exitDx=0;exitDy=0;" edge="1" parent="1" source="h0qUA_rzXuK-6Y-ImOe0-9" target="h0qUA_rzXuK-6Y-ImOe0-14">
          <mxGeometry width="50" height="50" relative="1" as="geometry">
            <mxPoint x="862.5" y="230" as="sourcePoint" />
            <mxPoint x="861.9999999999999" y="274.9999999999998" as="targetPoint" />
          </mxGeometry>
        </mxCell>
      </root>
    </mxGraphModel>
  </diagram>
</mxfile>
